<svg t="1678621566585" class="icon" viewBox="0 0 1024 1024" version="1.1" xmlns="http://www.w3.org/2000/svg" p-id="3236" data-spm-anchor-id="a313x.7781069.0.i25" width="200" height="200"><path d="M502.35714248 62h7.98979658c69.52040859 46.28571416 145.46938799 90.36734678 230.51020342 97.16326523 50.5102043 2.75510214 101.29591846 3.9489794 151.53061289-2.29591845 4.95918369 121.13265322 7.71428584 242.54081631 0.55101973 363.58163262-5.41836739 58.86734678-13.40816309 118.28571416-34.4387751 173.84693906-17.26530644 45.82653047-55.10204121 79.07142832-91.5612249 109.83673476-77.60204122 62.54081631-164.47959141 112.95918369-254.66326523 154.83673477-86.78571416-39.21428584-169.80612276-87.88775537-245.11224464-146.29591846-42.33673477-34.53061201-87.42857168-72.27550987-104.78571416-126.09183692C134.09183692 606.77550987 130.14285752 521.18367383 126.28571416 437.42857168V283.5102043c2.29591846-42.15306094 3.39795879-84.21428584 4.86734678-126.36734678 83.66326523 6.33673477 171.82653047 11.11224463 250.89795966-22.40816397 45.5510206-16.80612276 84.76530644-46.19387724 128.3877545-66.94897939L502.35714248 62M329.15306094 329.52040859c3.4897957 3.76530644 10.65306094 11.29591846 14.23469443 15.06122403-2.02040859 32.14285752-1.0102043 64.28571416-2.47959228 96.42857168-27.5510206 0.5510206-55.10204121 1.0102043-82.65306095 0.82653047 0 70.53061201-2.29591846 141.15306094 0.82653047 211.68367382 50.5102043 3.76530644 101.29591846 2.20408154 151.98979571 2.84693818 118.46938799-7.34693906 237.12244893 3.03061201 355.68367383-0.18367294-1.19387724-60.33673477 0.27550987-120.58163261-0.36734678-180.91836739-1.28571416-10.65306094 3.30612276-27-11.1122455-30.30612275-24.24489785-1.37755107-48.4897957-0.09183692-72.64285664 0.91836738-6.52040859-33.88775537-6.15306094-68.69387724-6.70408155-103.13265322 11.66326523 1.5612249 19.10204122-3.12244893 22.13265322-14.14285664-61.80612276-26.35714248-124.53061201-50.60204121-185.96938798-77.96938798-60.0612249 28.37755107-124.25510214 47.84693906-182.93877598 78.88775536z" p-id="3237" fill="#17b522" data-spm-anchor-id="a313x.7781069.0.i20" class=""></path><path d="M353.12244893 336.5c105.70408154 2.47959141 211.59183692 1.28571416 317.29591846 4.13265323-0.91836739 36.73469355 0.18367383 73.46938799 1.37755107 110.11224462 30.12244893-1.5612249 60.52040859-2.84693906 90.45918369 1.56122491 1.0102043 66.39795878 1.65306094 132.88775537-0.45918369 199.28571415-62.08163262 2.38775537-124.4387751 1.83673477-186.52040859 0.27550987-1.83673477-26.17346953-1.83673477-52.4387751 0.45918369-78.61224464-43.25510215-3.30612276-86.78571416-1.46938799-130.13265234-1.01020429 0.82653047 25.80612276 0.82653047 51.70408154-0.82653135 77.60204121-57.30612276 1.74489785-114.79591846 4.40816308-172.01020342 1.56122402l-10.28571504-9.5510206c-3.58163262-62.72449013-0.18367383-125.72449013-1.28571417-188.54081631 29.29591846-6.97959141 64.37755107 5.69387724 90.55102062-8.63265234 2.47959141-36 0.09183692-72.18367383 1.37755107-108.18367383m244.46938799 34.4387751c-2.47959141 23.32653047-1.92857168 46.74489785-2.57142833 70.16326611 15.61224463 0.36734678 31.31632617 0.45918369 47.02040772 0.27550986-1.10204122-23.32653047 4.04081631-47.75510214-4.59183691-70.07142831-13.31632617 1.0102043-26.63265322 1.10204122-39.85714248-0.36734766m-218.57142833 1.5612249a1163.57142832 1163.57142832 0 0 0 0 69.33673477c15.42857168-0.27550987 30.76530644-0.45918369 46.10204034-0.4591837-0.18367383-22.86734678-0.18367383-45.73469355-0.18367383-68.6020412-15.33673477 0-30.58163261-0.09183692-45.91836651-0.27550987m71.35714248-0.18367383c-0.73469356 23.0510206-0.73469356 46.19387724-0.73469355 69.33673477 15.52040859-0.18367383 30.9489794-0.18367383 46.37755107-0.09183604 0.36734678-22.95918369 0.27550987-46.0102043-0.36734765-69.0612249-15.0612249 0.09183692-30.21428584 0-45.27550987-0.18367383m74.75510215-0.18367295c-1.28571416 23.14285752-1.10204122 46.37755107-0.5510206 69.61224463 15.24489786-0.27550987 30.58163261-0.27550987 45.91836738-0.09183691 0.36734678-22.95918369 0.36734678-45.91836738 0.18367383-68.87755107-15.24489786-0.09183692-30.39795879-0.27550987-45.55102061-0.64285665M378.10204121 470.4897957c0.73469356 22.31632617 0.73469356 44.72449013-0.27551074 67.13265323 15.97959141 1.10204122 32.0510206 1.10204122 48.03061201 0-1.10204122-22.40816308-1.10204122-44.81632617-0.36734678-67.13265323-15.79591846-0.09183692-31.59183692-0.09183692-47.38775449 0m71.44897939-0.27550986c0.27550987 22.77550987 0.27550987 45.5510206-0.09183691 68.32653047 15.97959141 0.27550987 31.95918369 0.09183692 47.84693907-1.37755108-1.5612249-22.22449013-1.5612249-44.35714248-0.27551075-66.58163261-15.79591846-0.09183692-31.59183692-0.27550987-47.47959141-0.36734678m74.47959141 0c0.64285752 22.5 0.36734678 45-0.45918369 67.5 16.16326523 1.19387724 32.32653047 1.28571416 48.39795967-1.0102043-1.5612249-21.9489794-1.5612249-44.08163262-0.64285752-66.12244892-15.79591846-0.09183692-31.59183692-0.18367383-47.29591846-0.36734678m-231.33673477 8.72448926c-2.47959141 16.9897957-3.76530644 34.4387751-1.19387724 51.42857167 9.91836739 6.52040859 22.77550987 3.03061201 33.97959141 4.77551075 2.84693906-18.64285752 2.57142833-37.65306094 0.82653135-56.47959229l-33.61224552 0.27550987m301.86734766-7.62244893c1.5612249 21.76530645 1.5612249 43.62244893-0.18367383 65.38775537 15.70408154 3.67346953 31.86734678 2.84693906 47.84693906 1.74489786-0.18367383-22.59183691-0.18367383-45.09183692 0.09183604-67.59183692-15.88775537-0.5510206-31.86734678-0.45918369-47.75510127 0.45918369m104.32653047 7.34693906c-0.27550987 18.73469355-0.27550987 37.46938799 0 56.29591846 13.22449013 0.27550987 26.4489794 0.73469356 39.67346953 1.10204121 2.9387751-19.37755107 2.66326523-39.21428584 0.36734678-58.68367383-13.31632617 0.45918369-26.72449013 0.82653047-40.04081631 1.28571416m-405.82653047 91.74489786c-2.57142833 16.80612276-5.14285752 34.16326523-1.28571503 50.87755107 9.18367383 9 24.0612249 2.29591846 35.72449013 3.48979571 0.36734678-18.18367383 0.27550987-36.45918369-1.5612249-54.55101974-10.92857168 0.09183692-21.9489794 0.18367383-32.8775502 0.18367296m303.61224463 0.5510206c-1.5612249 23.23469355-1.10204122 46.46938799-0.64285752 69.61224463 14.78571416 1.28571416 29.57142832 1.37755107 44.35714336 1.0102043 2.02040859-23.5102043 3.9489794-47.47959141-1.5612249-70.80612275-14.0510206 0.36734678-28.10204121 0.45918369-42.15306094 0.18367382m101.75510215-1.46938799c0 19.19387724 0.09183692 38.38775537 0.45918369 57.67346953 13.22449013-1.65306094 29.66326523 4.5 41.05101973-3.4897957 2.57142833-18.27550987 1.0102043-36.73469355 0.27551074-55.10204121-13.95918369 0.18367383-27.91836738 0.27550987-41.78571416 0.91836738m-320.23469444 2.38775537c0.18367383 24.15306094 0.36734678 48.39795879 1.46938799 72.55102061 14.69387724-0.73469356 29.47959141-1.19387724 44.17346954-1.37755108 1.28571416-23.69387724 1.37755107-47.38775537 1.46938799-71.08163261-15.70408154-0.18367383-31.40816308-0.18367383-47.11224552-0.09183692z" p-id="3238" fill="#17b522" data-spm-anchor-id="a313x.7781069.0.i23" class=""></path></svg>